<?xml version="1.0" standalone="no"?>
<!DOCTYPE svg PUBLIC "-//W3C//DTD SVG 20010904//EN"
 "http://www.w3.org/TR/2001/REC-SVG-20010904/DTD/svg10.dtd">
<svg version="1.0" xmlns="http://www.w3.org/2000/svg"
 width="2000.000000pt" height="2000.000000pt" viewBox="0 0 2000.000000 2000.000000"
 preserveAspectRatio="xMidYMid meet">
<metadata>
Created by potrace 1.11, written by Peter Selinger 2001-2013
</metadata>
<g transform="translate(0.000000,2000.000000) scale(0.100000,-0.100000)"
fill="#000000" stroke="none">
<path d="M12280 14805 l0 -4625 38 5 c20 3 462 37 982 76 520 39 947 73 948
75 2 1 -27 53 -64 116 -118 194 -220 460 -264 686 -55 283 -55 284 -55 1187 0
915 0 907 61 1220 52 268 180 584 325 805 87 131 292 336 419 419 315 207 664
301 1108 301 263 0 446 -27 648 -95 408 -136 727 -422 936 -840 232 -462 338
-1017 338 -1780 0 -693 -94 -1265 -277 -1693 -20 -45 -34 -85 -31 -87 3 -4
1138 81 1583 118 l150 12 32 128 c84 334 148 819 159 1202 2 105 7 215 9 245
6 87 -13 559 -30 730 -67 679 -215 1232 -466 1733 -333 662 -864 1150 -1505
1382 -538 195 -1194 235 -1764 109 -144 -32 -376 -109 -507 -168 -433 -194
-819 -531 -1106 -964 l-82 -124 -3 2226 -2 2226 -790 0 -790 0 0 -4625z"/>
<path d="M4488 16300 c-485 -32 -928 -166 -1294 -393 -241 -150 -466 -351
-655 -588 l-79 -100 0 445 0 446 -770 0 -770 0 0 -3395 0 -3395 53 5 c64 7
1485 115 1509 115 17 0 18 123 21 2223 l3 2222 21 93 c30 130 48 183 103 297
151 316 454 563 851 693 462 151 917 127 1329 -69 337 -161 575 -418 669 -724
52 -168 51 -101 51 -2383 l0 -2122 53 5 c66 7 1485 115 1509 115 17 0 18 74
18 1884 0 1210 4 1929 10 2012 32 396 155 702 375 933 131 137 267 230 455
308 386 162 938 185 1328 54 415 -139 685 -443 803 -903 11 -46 30 -141 42
-213 21 -129 21 -147 24 -1988 l4 -1859 37 6 c20 3 378 31 795 63 l757 57 0
1832 c0 1167 -4 1878 -10 1960 -35 434 -140 825 -310 1151 -376 722 -1090
1151 -2015 1214 -725 48 -1482 -189 -2025 -636 -123 -102 -288 -268 -370 -374
-36 -46 -72 -93 -80 -104 -15 -18 -19 -15 -75 74 -72 115 -99 152 -190 253
-166 187 -414 372 -670 499 -441 219 -979 322 -1507 287z"/>
<path d="M11560 9170 c-965 -89 -1724 -396 -2259 -915 -431 -417 -675 -930
-736 -1547 l-7 -68 754 0 753 0 33 108 c44 142 144 347 222 452 149 203 375
388 615 505 442 215 1024 274 1559 156 559 -123 958 -474 1095 -963 48 -171
54 -233 58 -650 l5 -398 -99 0 c-134 0 -1304 -28 -1483 -35 -901 -37 -1664
-172 -2220 -391 -666 -263 -1104 -639 -1361 -1169 -130 -269 -204 -547 -239
-895 -16 -164 -14 -520 4 -671 74 -616 351 -1146 781 -1494 188 -152 324 -237
535 -334 440 -204 947 -300 1515 -288 582 12 1006 102 1435 304 445 210 856
601 1140 1086 35 59 65 106 66 104 3 -3 114 -1245 114 -1275 0 -10 151 -12
738 -10 l737 3 0 2965 c0 3179 2 3050 -50 3335 -165 899 -736 1537 -1663 1859
-294 102 -609 170 -982 212 -167 19 -901 28 -1060 14z m2090 -5064 c0 -753 -2
-783 -57 -951 -88 -270 -304 -558 -593 -790 -414 -333 -937 -534 -1440 -552
-622 -23 -1153 196 -1434 590 -133 186 -205 388 -227 637 -31 357 42 684 208
933 304 457 912 704 1938 788 192 15 533 25 944 28 190 1 347 4 350 6 2 3 73
5 158 5 l153 0 0 -694z"/>
<path d="M972 8906 c18 -24 82 -111 142 -193 61 -81 177 -238 258 -348 82
-110 223 -301 314 -425 188 -256 391 -530 609 -825 83 -112 224 -304 315 -427
313 -425 727 -986 822 -1114 140 -189 376 -511 382 -521 4 -7 -42 -78 -110
-170 -65 -87 -161 -216 -214 -288 -53 -71 -167 -227 -255 -345 -87 -118 -209
-282 -270 -365 -61 -82 -228 -307 -370 -500 -142 -192 -302 -408 -355 -480
-53 -71 -175 -236 -270 -365 -96 -129 -233 -314 -304 -411 -72 -97 -205 -277
-296 -400 -91 -123 -237 -320 -325 -439 -278 -375 -340 -460 -343 -470 -3 -7
317 -10 922 -10 l926 0 118 158 c64 87 177 239 249 338 73 98 187 253 254 344
67 91 145 197 174 235 28 39 123 167 210 285 87 118 224 304 304 412 148 200
334 453 482 653 44 61 129 175 188 255 59 80 136 184 171 233 35 48 67 87 70
87 3 -1 45 -56 95 -123 49 -67 160 -216 245 -332 86 -115 234 -316 330 -445
95 -129 217 -293 270 -365 54 -71 194 -260 312 -420 384 -520 642 -868 708
-957 36 -48 110 -148 165 -223 l99 -135 934 0 c514 0 932 3 930 8 -1 4 -57 79
-122 167 -165 220 -342 459 -539 725 -310 418 -470 634 -597 805 -136 182
-521 701 -708 955 -64 85 -165 223 -227 305 -61 83 -196 265 -300 405 -104
140 -252 341 -330 445 -261 352 -300 406 -300 420 0 13 90 137 594 815 303
408 375 504 616 830 136 184 298 403 360 485 61 83 175 236 252 340 78 105
217 292 310 417 210 283 454 613 614 828 67 91 126 171 132 178 7 9 -179 12
-924 12 l-934 0 -81 -107 c-45 -60 -173 -232 -285 -383 -296 -401 -559 -757
-669 -905 -53 -71 -182 -245 -285 -385 -104 -140 -252 -340 -330 -445 -77
-104 -183 -248 -234 -318 l-94 -128 -60 83 c-58 79 -512 696 -648 880 -35 47
-136 184 -224 304 -88 119 -212 287 -276 373 -63 86 -153 208 -199 271 -79
108 -131 178 -438 594 l-124 166 -934 0 -934 0 32 -44z"/>
</g>
</svg>
